<svg width="512" height="512" viewBox="0 0 512 512" fill="none" xmlns="http://www.w3.org/2000/svg">
<g clip-path="url(#clip0_521_170)">
<path d="M27.8086 16.6484C43.7591 18.4714 57.2031 19.8385 68.1406 20.75C79.0781 21.2057 87.737 21.6615 94.1172 22.1172C101.865 22.5729 108.017 22.8008 112.574 22.8008C120.322 22.8008 129.208 22.5729 139.234 22.1172C147.893 21.6615 157.919 20.9779 169.312 20.0664C181.161 18.6992 193.922 16.6484 207.594 13.9141C201.214 20.75 195.973 27.3581 191.871 33.7383C187.77 39.6628 184.579 45.1315 182.301 50.1445C179.566 55.6133 177.288 60.6263 175.465 65.1836C173.642 71.1081 171.591 80.2227 169.312 92.5273C167.034 103.009 164.527 117.82 161.793 136.961C159.514 156.102 156.552 181.167 152.906 212.156C168.401 212.612 181.845 212.84 193.238 212.84C204.632 212.384 214.202 212.156 221.949 212.156H244.508C250.888 211.701 258.18 211.245 266.383 210.789C280.055 210.333 300.79 208.966 328.59 206.688C330.868 185.724 332.008 167.723 332.008 152.684C332.464 137.189 332.236 124.201 331.324 113.719C330.413 101.87 329.046 91.8438 327.223 83.6406C325.855 79.0833 323.805 73.6146 321.07 67.2344C318.792 61.7656 315.602 55.1576 311.5 47.4102C307.854 39.207 302.841 29.4089 296.461 18.0156C308.31 19.8385 318.792 21.2057 327.906 22.1172C337.477 22.5729 345.452 23.0286 351.832 23.4844C359.124 23.9401 365.276 24.168 370.289 24.168C375.302 24.168 381.91 23.9401 390.113 23.4844C396.949 23.0286 405.38 22.8008 415.406 22.8008C425.432 22.3451 437.737 21.6615 452.32 20.75C448.674 27.1302 445.484 33.7383 442.75 40.5742C440.016 47.4102 437.737 53.5625 435.914 59.0312C434.091 65.4115 432.268 71.7917 430.445 78.1719C428.167 87.7422 426.116 101.642 424.293 119.871C422.926 138.1 421.559 158.38 420.191 180.711C419.28 203.042 418.368 226.284 417.457 250.438C417.001 274.591 416.546 297.378 416.09 318.797C416.09 340.216 416.318 359.357 416.773 376.219C417.229 392.625 418.141 404.246 419.508 411.082C420.875 419.285 423.154 427.716 426.344 436.375C429.078 444.122 432.724 452.553 437.281 461.668C441.839 470.327 447.763 478.53 455.055 486.277L290.309 498.582C297.145 492.202 302.613 486.049 306.715 480.125C310.816 473.745 314.007 468.276 316.285 463.719C318.564 458.706 320.159 453.921 321.07 449.363C321.526 443.895 322.21 434.324 323.121 420.652C324.033 409.259 324.944 393.081 325.855 372.117C326.767 351.154 327.678 323.354 328.59 288.719C322.21 288.719 314.462 288.947 305.348 289.402C296.689 289.402 288.486 289.63 280.738 290.086C271.624 290.542 262.053 290.77 252.027 290.77C242.001 291.225 231.52 291.681 220.582 292.137C211.467 293.048 201.214 293.96 189.82 294.871C178.883 295.327 167.945 296.01 157.008 296.922C156.096 316.062 156.096 332.924 157.008 347.508C157.919 361.635 159.286 373.712 161.109 383.738C162.932 395.587 165.211 405.841 167.945 414.5C170.68 422.703 173.642 430.906 176.832 439.109C179.566 446.401 182.757 454.148 186.402 462.352C190.504 470.555 194.605 477.846 198.707 484.227C190.048 483.315 182.073 482.632 174.781 482.176C167.49 481.264 161.109 480.353 155.641 479.441C149.26 478.986 143.108 478.53 137.184 478.074C131.259 478.074 124.195 477.846 115.992 477.391C108.701 476.935 99.5859 476.707 88.6484 476.707C77.7109 476.251 64.9505 476.023 50.3672 476.023C59.026 467.365 65.862 458.934 70.875 450.73C76.3438 442.072 80.2174 434.324 82.4961 427.488C85.2305 419.285 87.0534 411.766 87.9648 404.93C88.4206 399.005 88.6484 387.84 88.6484 371.434C89.1042 355.027 89.1042 336.342 88.6484 315.379C88.6484 293.96 88.4206 271.629 87.9648 248.387C87.5091 224.689 86.8255 202.586 85.9141 182.078C85.4583 161.57 84.7747 144.025 83.8633 129.441C83.4076 114.402 82.9518 105.06 82.4961 101.414C80.2174 93.2109 76.7995 84.3242 72.2422 74.7539C68.1406 67.0065 62.6719 58.1198 55.8359 48.0938C49 37.612 39.6576 27.1302 27.8086 16.6484Z" fill="black"/>
</g>
<defs>
<clipPath id="clip0_521_170">
<rect width="512" height="512" fill="white"/>
</clipPath>
</defs>
</svg>
